<svg id="SvgjsSvg1001" width="256" height="256" xmlns="http://www.w3.org/2000/svg" version="1.1" xmlns:xlink="http://www.w3.org/1999/xlink" xmlns:svgjs="http://svgjs.com/svgjs"><defs id="SvgjsDefs1002"></defs><g id="SvgjsG1008"><svg xmlns="http://www.w3.org/2000/svg" enable-background="new 0 0 47.5 47.5" viewBox="0 0 47.5 47.5" width="256" height="256"><defs><clipPath id="a"><path d="M0 38h38V0H0v38Z" fill="#fe9526" class="color000 svgShape"></path></clipPath></defs><g clip-path="url(#a)" transform="matrix(1.25 0 0 -1.25 0 47.5)"><path fill="#595bd4" d="M0 0a4 4 0 0 0-4-4h-28a4 4 0 0 0-4 4v28a4 4 0 0 0 4 4h28a4 4 0 0 0 4-4V0Z" transform="translate(37 5)" class="color3b88c3 svgShape"></path><path fill="#53d86a" d="M0 0c-.093.403-.124.62-.124 1.054 0 .992.837 2.047 2.201 2.047 1.488 0 2.202-.869 2.481-2.233l2.635-13.177h.062l4.031 13.58c.341 1.116 1.272 1.83 2.419 1.83s2.077-.714 2.419-1.83l4.03-13.58h.061L22.852.868c.277 1.364.992 2.233 2.481 2.233 1.363 0 2.201-1.055 2.201-2.047 0-.434-.032-.651-.125-1.054l-3.938-16.929c-.31-1.303-1.334-2.418-3.069-2.418a3.16 3.16 0 0 0-3.069 2.263L13.735-5.116h-.061l-3.597-11.968a3.163 3.163 0 0 0-3.07-2.263c-1.736 0-2.759 1.115-3.069 2.418L0 0Z" transform="translate(5.298 27.162)" class="colorfff svgShape"></path></g></svg></g></svg>