<?xml version="1.0" encoding="UTF-8" standalone="no"?>
<svg
   width="24"
   height="24"
   viewBox="0 0 24 24"
   version="1.1"
   id="svg142"
   sodipodi:docname="bx-sun-active.svg"
   inkscape:version="1.2 (dc2aedaf03, 2022-05-15)"
   xmlns:inkscape="http://www.inkscape.org/namespaces/inkscape"
   xmlns:sodipodi="http://sodipodi.sourceforge.net/DTD/sodipodi-0.dtd"
   xmlns="http://www.w3.org/2000/svg"
   xmlns:svg="http://www.w3.org/2000/svg">
  <defs
     id="defs146" />
  <sodipodi:namedview
     id="namedview144"
     pagecolor="#ffffff"
     bordercolor="#000000"
     borderopacity="0.25"
     inkscape:showpageshadow="2"
     inkscape:pageopacity="0.0"
     inkscape:pagecheckerboard="0"
     inkscape:deskcolor="#d1d1d1"
     showgrid="false"
     inkscape:zoom="32"
     inkscape:cx="13.6875"
     inkscape:cy="12.78125"
     inkscape:window-width="1920"
     inkscape:window-height="1017"
     inkscape:window-x="-8"
     inkscape:window-y="-8"
     inkscape:window-maximized="1"
     inkscape:current-layer="svg142" />
  <path
     d="M6.993 12c0 2.761 2.246 5.007 5.007 5.007s5.007-2.246 5.007-5.007S14.761 6.993 12 6.993 6.993 9.239 6.993 12zM12 8.993c1.658 0 3.007 1.349 3.007 3.007S13.658 15.007 12 15.007 8.993 13.658 8.993 12 10.342 8.993 12 8.993zM10.998 19h2v3h-2zm0-17h2v3h-2zm-9 9h3v2h-3zm17 0h3v2h-3zM4.219 18.363l2.12-2.122 1.415 1.414-2.12 2.122zM16.24 6.344l2.122-2.122 1.414 1.414-2.122 2.122zM6.342 7.759 4.22 5.637l1.415-1.414 2.12 2.122zm13.434 10.605-1.414 1.414-2.122-2.122 1.414-1.414z"
     id="path140"
     style="fill:#ccd6f6;fill-opacity:1" />
  <path
     style="fill:#ccd6f6;fill-opacity:1;stroke:#050000;stroke-width:0"
     d="m 11.555363,14.962836 c -0.638119,-0.108 -1.163161,-0.373142 -1.6297725,-0.823023 -0.6639346,-0.640128 -0.976205,-1.480475 -0.899259,-2.419982 0.1013219,-1.237135 1.0012395,-2.2843084 2.2608795,-2.6308322 0.327928,-0.090212 1.09765,-0.090212 1.425578,0 0.541395,0.1489364 0.971576,0.3922404 1.361621,0.7701115 0.665102,0.6443457 0.97618,1.4818537 0.899258,2.4210587 -0.09287,1.133984 -0.885356,2.148846 -1.985953,2.543233 -0.403847,0.144715 -1.036986,0.206348 -1.432352,0.139434 z"
     id="path2332" />
</svg>
