<?xml version="1.0" encoding="UTF-8" standalone="no"?>
<svg
   width="24"
   height="24"
   viewBox="0 0 24 24"
   version="1.1"
   id="svg4"
   sodipodi:docname="bxl-tailwind-css.svg"
   inkscape:version="1.2 (dc2aedaf03, 2022-05-15)"
   xmlns:inkscape="http://www.inkscape.org/namespaces/inkscape"
   xmlns:sodipodi="http://sodipodi.sourceforge.net/DTD/sodipodi-0.dtd"
   xmlns="http://www.w3.org/2000/svg"
   xmlns:svg="http://www.w3.org/2000/svg">
  <defs
     id="defs8" />
  <sodipodi:namedview
     id="namedview6"
     pagecolor="#ffffff"
     bordercolor="#000000"
     borderopacity="0.25"
     inkscape:showpageshadow="2"
     inkscape:pageopacity="0.0"
     inkscape:pagecheckerboard="0"
     inkscape:deskcolor="#d1d1d1"
     showgrid="false"
     inkscape:zoom="34.875"
     inkscape:cx="10.781362"
     inkscape:cy="12.014337"
     inkscape:window-width="1920"
     inkscape:window-height="1017"
     inkscape:window-x="-8"
     inkscape:window-y="-8"
     inkscape:window-maximized="1"
     inkscape:current-layer="svg4" />
  <path
     d="M18.5 9.51a4.22 4.22 0 0 1-1.91-1.34A5.77 5.77 0 0 0 12 6a4.72 4.72 0 0 0-5 4 3.23 3.23 0 0 1 3.5-1.49 4.32 4.32 0 0 1 1.91 1.35A5.77 5.77 0 0 0 17 12a4.72 4.72 0 0 0 5-4 3.2 3.2 0 0 1-3.5 1.51zm-13 4.98a4.22 4.22 0 0 1 1.91 1.34A5.77 5.77 0 0 0 12 18a4.72 4.72 0 0 0 5-4 3.23 3.23 0 0 1-3.5 1.49 4.32 4.32 0 0 1-1.91-1.35A5.8 5.8 0 0 0 7 12a4.72 4.72 0 0 0-5 4 3.2 3.2 0 0 1 3.5-1.51z"
     id="path2"
     style="fill:#38bdf8;fill-opacity:1" />
</svg>
