<?xml version="1.0" encoding="UTF-8" standalone="no"?>
<svg
   viewBox="0 0 512 512"
   version="1.1"
   id="svg1979"
   sodipodi:docname="facebook-light.svg"
   inkscape:version="1.2 (dc2aedaf03, 2022-05-15)"
   xmlns:inkscape="http://www.inkscape.org/namespaces/inkscape"
   xmlns:sodipodi="http://sodipodi.sourceforge.net/DTD/sodipodi-0.dtd"
   xmlns="http://www.w3.org/2000/svg"
   xmlns:svg="http://www.w3.org/2000/svg">
  <defs
     id="defs1983" />
  <sodipodi:namedview
     id="namedview1981"
     pagecolor="#ffffff"
     bordercolor="#000000"
     borderopacity="0.25"
     inkscape:showpageshadow="2"
     inkscape:pageopacity="0.0"
     inkscape:pagecheckerboard="0"
     inkscape:deskcolor="#d1d1d1"
     showgrid="false"
     inkscape:zoom="1.6347656"
     inkscape:cx="204.92234"
     inkscape:cy="207.36918"
     inkscape:window-width="1920"
     inkscape:window-height="1017"
     inkscape:window-x="-8"
     inkscape:window-y="-8"
     inkscape:window-maximized="1"
     inkscape:current-layer="svg1979" />
  <path
     d="M 160.27501,154.44694 C 160.75129,99.745737 161.22753,41.574704 218.74091,15.403398 243.86898,3.9506114 268.7249,3.8145334 301.94932,3.4970359 q 30.7524,-0.2948303 61.50481,0.1132642 1.49682,0 1.49682,1.5194812 V 118.9772 a 0.72572069,0.72572069 0 0 1 -0.72572,0.72574 q -27.12383,0.0227 -54.27033,-0.13616 -7.91487,-0.0454 -15.62566,1.65555 -1.20198,0.24948 -1.20198,1.49681 l -0.27215,31.47812 a 1.29269,1.29269 0 0 0 1.29269,1.2927 l 71.68761,-0.0906 q 1.47411,0 1.31539,1.47412 l -12.04245,113.4619 q -0.13616,1.31535 -1.47413,1.31535 h -58.98748 q -1.7009,0 -1.7009,1.7009 v 228.51132 a 1.7009079,1.7009079 0 0 1 -1.70092,1.70091 l -129.83596,-0.0227 q -1.13395,0 -1.13395,-1.13393 l 0.0228,-229.69061 q 0,-1.06592 -1.06591,-1.06592 h -45.44833 q -1.13394,0 -1.13394,-1.13393 V 156.82816 q 0,-1.45145 1.42875,-1.45145 l 45.13077,0.11329 q 1.0659,0 1.0659,-1.04322 z m 96.61158,36.28605 q -0.83912,-32.18121 0.29482,-64.29431 c 1.54215,-42.772176 35.53763,-45.221499 69.89599,-42.704155 a 1.4741202,1.4741202 0 0 0 1.58749,-1.474128 v -41.25267 q 0,-1.065909 -1.06588,-1.088603 C 266.52506,38.286262 200.28037,32.707303 197.30946,116.30125 q -1.31536,36.55818 -0.40823,73.2751 a 2.0864472,2.0864472 0 0 1 -2.08645,2.13182 h -44.72252 q -1.13396,0 -1.13396,1.11125 l -0.068,41.41144 a 1.1566174,1.1566174 0 0 0 1.1566,1.17929 l 44.83593,-0.0228 a 1.6782291,1.7009079 0 0 1 1.67823,1.70091 l 0.0454,229.01022 a 1.2246537,1.2246537 0 0 0 1.22468,1.22466 l 57.12782,-0.0454 q 1.70092,0 1.70092,-1.7236 v -228.738 q 0,-1.40607 1.38339,-1.40607 l 62.34394,-0.0454 a 2.1544833,2.1318045 3 0 0 2.1318,-1.90501 l 4.35433,-40.61768 a 1.0205447,1.0205447 0 0 0 -1.02054,-1.13394 h -67.96829 q -0.97518,0 -0.99786,-0.97518 z"
     id="path1977"
     style="fill:#434952;fill-opacity:1;stroke-width:2.26787" />
</svg>
