<?xml version="1.0" encoding="UTF-8" standalone="no"?>
<svg
   viewBox="0 0 1448 1448"
   version="1.1"
   id="svg6841"
   sodipodi:docname="gmail.svg"
   inkscape:version="1.2 (dc2aedaf03, 2022-05-15)"
   xmlns:inkscape="http://www.inkscape.org/namespaces/inkscape"
   xmlns:sodipodi="http://sodipodi.sourceforge.net/DTD/sodipodi-0.dtd"
   xmlns="http://www.w3.org/2000/svg"
   xmlns:svg="http://www.w3.org/2000/svg">
  <defs
     id="defs6845" />
  <sodipodi:namedview
     id="namedview6843"
     pagecolor="#ffffff"
     bordercolor="#000000"
     borderopacity="0.25"
     inkscape:showpageshadow="2"
     inkscape:pageopacity="0.0"
     inkscape:pagecheckerboard="0"
     inkscape:deskcolor="#d1d1d1"
     showgrid="false"
     inkscape:zoom="0.57803867"
     inkscape:cx="650.47551"
     inkscape:cy="724.86499"
     inkscape:window-width="1920"
     inkscape:window-height="1017"
     inkscape:window-x="-8"
     inkscape:window-y="-8"
     inkscape:window-maximized="1"
     inkscape:current-layer="svg6841" />
  <path
     d="M1214.14 241.59c57.93 4.12 104.52 47.24 112.15 104.77q.95 7.18.95 19.95 0 354.97.02 709.94 0 13.95-.52 19.98c-4.92 56.22-47.57 101.43-103.6 109.24q-7.33 1.03-19.96 1.03H246.25q-13.12 0-19.97-.85c-54.15-6.67-96.97-49.41-104.51-103.26q-1.01-7.25-1.01-19.95-.02-361.47-.01-722.94c0-39.83 22.68-78.09 55.57-99.19q26.07-16.72 57.49-18.76 4.31-.28 20-.28 472.6-.04 945.19-.02c4.34.01 10.25 0 15.14.34Zm-911.7 122.97q210.32 149.17 420.63 298.4a1.59 1.59 90 0 0 1.84 0q210.02-149 420.17-298.08c2.35-1.66 1.86-2.88-.93-2.88H302.56a.99.79 12.6 0 0-.79.39q-.73 1.18.67 2.17Zm-.42 721.35q.15.17.48.17 421.72-.08 843.45-.08a.43.43-89.3 0 0 .43-.42c.26-8.36-.13-18.5-.13-25.11q-.01-257.26 0-514.17 0-1.27-1.01-.56L724.93 843.93a1.61 1.61-90 0 1-1.86 0L302.88 545.84a.87.87 20.3 0 0-1.37.63c-.15 1.52.24 3.09.24 4.37q.01 266.68-.01 534.31a1.18 1.17 25.1 0 0 .28.76Z"
     id="path6839"
     style="fill:#8892b0;fill-opacity:1" />
</svg>
